<svg width="600" height="700" viewBox="0 0 600 700" xmlns="http://www.w3.org/2000/svg">
  <defs>
    <linearGradient id="bg" x1="0" y1="0" x2="1" y2="1">
      <stop offset="0%" stop-color="#8a7a68"/>
      <stop offset="100%" stop-color="#4a3f34"/>
    </linearGradient>
    <linearGradient id="rock1" x1="0" y1="0" x2="1" y2="1">
      <stop offset="0%" stop-color="#a89178"/>
      <stop offset="100%" stop-color="#6b5a49"/>
    </linearGradient>
    <linearGradient id="rock2" x1="0" y1="0" x2="1" y2="1">
      <stop offset="0%" stop-color="#8f7a63"/>
      <stop offset="100%" stop-color="#5a4a3a"/>
    </linearGradient>
    <linearGradient id="bottle" x1="0" y1="0" x2="1" y2="0">
      <stop offset="0%" stop-color="#e8dcc8"/>
      <stop offset="50%" stop-color="#fdf8ee"/>
      <stop offset="100%" stop-color="#d8c9ab"/>
    </linearGradient>
    <linearGradient id="cap" x1="0" y1="0" x2="0" y2="1">
      <stop offset="0%" stop-color="#e8c98a"/>
      <stop offset="100%" stop-color="#a97f3f"/>
    </linearGradient>
  </defs>
  <rect width="600" height="700" fill="url(#bg)"/>
  <ellipse cx="150" cy="600" rx="220" ry="90" fill="url(#rock1)"/>
  <ellipse cx="420" cy="640" rx="260" ry="110" fill="url(#rock2)"/>
  <ellipse cx="300" cy="500" rx="300" ry="130" fill="url(#rock1)" opacity="0.85"/>
  <ellipse cx="100" cy="420" rx="150" ry="80" fill="url(#rock2)" opacity="0.7"/>
  <ellipse cx="480" cy="380" rx="170" ry="90" fill="url(#rock1)" opacity="0.6"/>
  <g>
    <rect x="270" y="230" width="60" height="260" rx="14" fill="url(#bottle)" stroke="#c9b892" stroke-width="1"/>
    <rect x="282" y="150" width="36" height="90" rx="6" fill="url(#cap)"/>
    <rect x="278" y="140" width="44" height="20" rx="4" fill="#8a6a34"/>
    <rect x="280" y="290" width="40" height="60" rx="2" fill="#ffffff" opacity="0.6"/>
  </g>
  <text x="30" y="45" font-family="Georgia, serif" font-size="22" fill="#f3efe8" opacity="0.85">Auro™</text>
</svg>
